<?xml version="1.0" standalone="no"?>
<!DOCTYPE svg PUBLIC "-//W3C//DTD SVG 1.1//EN" "http://www.w3.org/Graphics/SVG/1.1/DTD/svg11.dtd" >
<svg xmlns="http://www.w3.org/2000/svg">
<metadata>
Created by FontForge 20120731 at Fri Jun 24 10:38:04 2016
 By admin
</metadata>
<defs>
<font id="iconfont" horiz-adv-x="1024" >
  <font-face 
    font-family="iconfont"
    font-weight="500"
    font-stretch="normal"
    units-per-em="1024"
    panose-1="2 0 6 3 0 0 0 0 0 0"
    ascent="896"
    descent="-128"
    x-height="792"
    bbox="0 -212 1206 896"
    underline-thickness="50"
    underline-position="-100"
    unicode-range="U+0078-E81C"
  />
<missing-glyph horiz-adv-x="374" 
d="M34 0v682h272v-682h-272zM68 34h204v614h-204v-614z" />
    <glyph glyph-name=".notdef" horiz-adv-x="374" 
d="M34 0v682h272v-682h-272zM68 34h204v614h-204v-614z" />
    <glyph glyph-name=".null" horiz-adv-x="0" 
 />
    <glyph glyph-name="nonmarkingreturn" horiz-adv-x="341" 
 />
    <glyph glyph-name="x" unicode="x" horiz-adv-x="1001" 
d="M281 543q-27 -1 -53 -1h-83q-18 0 -36.5 -6t-32.5 -18.5t-23 -32t-9 -45.5v-76h912v41q0 16 -0.5 30t-0.5 18q0 13 -5 29t-17 29.5t-31.5 22.5t-49.5 9h-133v-97h-438v97zM955 310v-52q0 -23 0.5 -52t0.5 -58t-10.5 -47.5t-26 -30t-33 -16t-31.5 -4.5q-14 -1 -29.5 -0.5
t-29.5 0.5h-32l-45 128h-439l-44 -128h-29h-34q-20 0 -45 1q-25 0 -41 9.5t-25.5 23t-13.5 29.5t-4 30v167h911zM163 247q-12 0 -21 -8.5t-9 -21.5t9 -21.5t21 -8.5q13 0 22 8.5t9 21.5t-9 21.5t-22 8.5zM316 123q-8 -26 -14 -48q-5 -19 -10.5 -37t-7.5 -25t-3 -15t1 -14.5
t9.5 -10.5t21.5 -4h37h67h81h80h64h36q23 0 34 12t2 38q-5 13 -9.5 30.5t-9.5 34.5q-5 19 -11 39h-368zM336 498v228q0 11 2.5 23t10 21.5t20.5 15.5t34 6h188q31 0 51.5 -14.5t20.5 -52.5v-227h-327z" />
    <glyph glyph-name="uniE601" unicode="&#xe601;" 
d="M509.5 741q-88.5 0 -169.5 -34.5t-139.5 -93t-93.5 -139.5t-35 -170t35 -170t93.5 -139.5t139.5 -93t169.5 -34.5t169.5 34.5t140 93t93.5 139.5t34.5 170t-34.5 170t-93.5 139.5t-140 93t-169.5 34.5zM509 -60q-99 0 -183 49t-132.5 133t-48.5 183t48.5 182.5
t132.5 132.5t183 49t183 -49t132.5 -132.5t48.5 -182.5t-48.5 -183t-132.5 -133t-183 -49zM694 281l-147 -85l-146 -84l-36 21v169v169l36 20l146 -84l147 -85v-41zM389 471zM365 471q-1 3 -1 7q0 10 7 17.5t17.5 7.5t18 -7.5t7.5 -17.5q0 -4 -1 -7q1 -4 1 -7
q0 -11 -7.5 -18t-18 -7t-17.5 7t-7 18q0 3 1 7zM681 302zM657 302q-1 3 -1 7q0 10 7.5 17.5t18 7.5t17.5 -7.5t7 -17.5q0 -4 -1 -7q1 -4 1 -7q0 -11 -7 -18t-17.5 -7t-18 7t-7.5 18q0 3 1 7zM389 133zM365 133q-1 3 -1 7q0 10 7 17.5t17.5 7.5t18 -7.5t7.5 -17.5q0 -4 -1 -7
q1 -4 1 -7q0 -11 -7.5 -18t-18 -7t-17.5 7t-7 18q0 3 1 7zM752 -62h77q15 0 26 -11t11 -26t-11 -25.5t-26 -10.5h-331q-116 3 -214 62t-154.5 158.5t-56.5 216.5q0 89 34.5 170t93 139.5t139.5 93t170 34.5t170 -34.5t139.5 -93t93 -139.5t34.5 -170q0 -112 -52.5 -208.5
t-142.5 -155.5zM510 666q-99 0 -183 -48.5t-132.5 -132.5t-48.5 -183t48.5 -183t132.5 -132.5t183 -48.5t183 48.5t132.5 132.5t48.5 183t-48.5 183t-132.5 132.5t-183 48.5zM674 212q-38 0 -64.5 26.5t-26.5 64.5t26.5 64.5t64.5 26.5t64.5 -26.5t26.5 -64.5t-26.5 -64.5
t-64.5 -26.5zM510 375q-38 0 -64.5 26.5t-26.5 64.5t26.5 64.5t64.5 26.5t64.5 -26.5t26.5 -64.5t-26.5 -64.5t-64.5 -26.5zM345 212q-38 0 -64.5 26.5t-26.5 64.5t26.5 64.5t64.5 26.5t64.5 -26.5t26.5 -64.5t-26.5 -64.5t-64.5 -26.5zM510 229q38 0 64.5 -26.5t26.5 -64.5
t-26.5 -64.5t-64.5 -26.5t-64.5 26.5t-26.5 64.5t26.5 64.5t64.5 26.5zM947 641q0 30 -21.5 51t-51.5 21h-62h-124h-61v-36q0 -15 10.5 -26t25.5 -11h211v-492q0 -75 -53 -128.5t-129 -53.5h-364q-76 0 -129 53.5t-53 128.5v492h247v37q0 15 -10.5 25.5t-25.5 10.5h-211
q-30 0 -51.5 -21t-21.5 -52v-492q0 -105 74.5 -180t180.5 -75h365q103 1 176.5 72.5t77.5 173.5v502z" />
    <glyph glyph-name="uniE602" unicode="&#xe602;" 
d="M316 648v-282h56q28 -3 28 -27q0 -28 -28 -28h-56v-16q40 -55 81 -108q15 -28 -3 -43q-25 -16 -41 12q-9 10 -15 19q-9 15 -22 34v-254q-3 -24 -28 -28q-27 4 -27 28v263q-34 -71 -65 -111q-22 -28 -44 -16q-24 22 -6 47q65 83 105 173h-58q-31 0 -34 28q3 24 34 27h68
v282q0 21 27 25q25 -4 28 -25zM214 577q13 -60 22 -115q3 -31 -19 -37q-24 -3 -31 25q-12 83 -21 117q-6 28 15 34q25 0 34 -24zM360 577q6 27 31 21q21 -9 15 -37q-3 -15 -6 -25q-13 -55 -19 -68q-12 -27 -34 -21q-18 9 -12 37q18 52 25 93zM808 -1v120q0 25 -22 25h-59
v-173q-3 -25 -27 -25q-25 3 -25 28v170h-68v-173q-3 -22 -28 -25q-25 3 -25 25v173h-58q-25 0 -22 -28v-145q-3 -28 -28 -31q-28 0 -28 28v179q-6 53 56 49h105l25 59h-173q-28 0 -31 22q0 25 28 28h429q25 -3 28 -25q-3 -25 -25 -25h-197l-25 -59h167q55 0 55 -58v-165
q0 -11 -0.5 -15t-3 -10t-8 -8t-14.5 -2q-28 1 -27 35zM826 595h-157v-46h160q62 3 56 -59q-6 -31 -15 -56q-13 -24 -37 -18q-22 9 -13 34q22 62 -6 56h-145v-140q-3 -30 -28 -34q-22 3 -22 38v136h-139q-25 -4 -25 -28v-34q-3 -28 -27.5 -28t-24.5 28v52q-6 56 62 53h154v46
h-142q-28 0 -31 21.5t25 25.5h352q25 -4 28 -25q0 -22 -25 -22zM502 385h55q22 -3 25 -22q0 -18 -21 -18h-59q-28 0 -31 18q3 19 31 22zM502 465h59q21 -3 21 -21.5t-21 -18.5h-59q-28 0 -28 18.5t28 21.5zM724 465h59q22 -3 22 -24q0 -19 -22 -19h-59q-27 0 -27 22
q0 18 27 21zM724 388h59q22 -3 22 -25q0 -18 -22 -18h-59q-27 0 -27 21q0 19 27 22z" />
    <glyph glyph-name="uniE607" unicode="&#xe607;" horiz-adv-x="1156" 
d="M1108 342h-85q-17 0 -29.5 12.5t-12.5 30t12.5 30t29.5 12.5h85q18 0 30.5 -12.5t12.5 -30t-12.5 -30t-30.5 -12.5zM941 626q-13 -13 -30.5 -13t-30 12.5t-12.5 30t13 30.5l60 60q12 13 30 13t30.5 -12.5t12.5 -30.5t-13 -30zM878 293q60 -71 60 -164q0 -106 -75 -181
t-181 -75h-341q-93 0 -171.5 45.5t-124 124t-45.5 171.5t45.5 171.5t124 124t171.5 45.5q49 0 97 -14q35 46 88 72.5t113 26.5q106 0 181 -75t75 -181q0 -46 -17 -91zM85 214q0 -106 75 -181t181 -75h341q71 0 121 50t50 120.5t-50 120.5t-121 50q-50 0 -92 -27
q-20 86 -89.5 142t-159.5 56q-106 0 -181 -75t-75 -181zM639 555q-70 0 -120 -50q76 -47 120 -125q25 4 43 4q67 0 125 -32q3 16 3 32q0 71 -50 121t-121 50zM639 725q-17 0 -29.5 12.5t-12.5 30.5v85q0 18 12.5 30.5t30 12.5t30 -12.5t12.5 -30.5v-85q0 -18 -12.5 -30.5
t-30.5 -12.5zM338 626l-60 60q-13 12 -13 30t12.5 30.5t30.5 12.5t30 -13l60 -60q13 -13 13 -30.5t-12.5 -30t-30 -12.5t-30.5 13z" />
    <glyph glyph-name="uniE608" unicode="&#xe608;" 
d="M513 536q-60 0 -102.5 -42t-42.5 -102t42.5 -102.5t102.5 -42.5t102.5 42.5t42.5 102.5t-42.5 102t-102.5 42zM513 300q-38 0 -65 27t-27 65t27 65t65 27t65 -27t27 -65t-27 -65t-65 -27zM513 747q-162 0 -254 -103t-72 -262q4 -30 19.5 -69t36 -76.5t50 -82t54.5 -79
t57.5 -76t51.5 -64t43.5 -51.5t26.5 -32q29 30 74.5 88.5t99.5 136t94.5 162t45.5 143.5q14 163 -75.5 264t-251.5 101zM789 379q-3 -37 -36.5 -104.5t-82 -139.5t-84 -121.5t-60.5 -82.5q-63 68 -169 220t-120 228q-13 66 5 125.5t58.5 100.5t99.5 65t126 24
q133 0 203.5 -87t59.5 -228z" />
    <glyph glyph-name="uniE609" unicode="&#xe609;" 
d="M1014 488q0 124 -88 211.5t-213 87.5q-119 0 -206 -81l425 -423q82 86 82 205zM465 657q-53 -76 -53 -169q0 -41 12 -81l208 -207q41 -12 81 -12q94 0 171 53zM91 42q-7 -6 -13 -14q-19 -22 -25 -51q-3 -13 -3 -27q0 -26 11 -51q1 -1 2 -3v-5l1 -1l-54 -54l36 -36l52 52
l2 -1q33 -24 74 -24q20 0 39 6t36 19v0q6 5 11 10l331 288l-205 204zM937 190q0 6 1 13h-14v-13q0 -40 -20 -63.5t-50 -23.5h-7v-14q4 1 7 1q30 0 50 -23.5t20 -64.5h13q0 41 20 64.5t50 23.5q3 0 7 -1v14h-7q-30 0 -50 23.5t-20 63.5zM279 710q1 -1 2 -1q5 -6 8 -16.5
t3 -17.5v-7h9q0 28 14 42.5t35 14.5q1 0 1 2v4q0 2 -1 2q-21 0 -35 14.5t-14 42.5q0 2 1 9h-10v-9q0 -28 -13.5 -42.5t-35.5 -14.5v-8q18 2 36 -15zM220 418h13q0 87 80 89v12q-80 3 -80 87v13h-14q1 -7 1 -13q0 -41 -21.5 -64t-55.5 -23v-13q48 0 62.5 -20t14.5 -68z" />
    <glyph glyph-name="uniE60A" unicode="&#xe60a;" 
d="M907 448l-79 202q-28 71 -108 71h-112q-2 4 -4.5 9.5t-9.5 20t-13.5 26t-14.5 20.5t-13 9h-81q-8 0 -21.5 -21t-23.5 -43l-10 -21h-113q-80 0 -108 -71l-79 -202q-29 -4 -58 -33.5t-29 -76.5v-257h89v-64q0 -36 19 -56t41.5 -20t41.5 20t19 56v64h544v-64
q0 -29 12.5 -48.5t30.5 -24t35.5 0t30 24t12.5 48.5v64h89v257q0 47 -29 76.5t-58 33.5zM224 237q-28 0 -48 20t-20 49t20 49.5t48 20.5t48 -20.5t20 -49.5t-20 -49t-48 -20zM199 452l60 157q12 38 44 39h418q32 -1 44 -39l60 -157h-626zM800 237q-28 0 -48 20t-20 49
t20 49.5t48 20.5t48 -20.5t20 -49.5t-20 -49t-48 -20z" />
    <glyph glyph-name="uniE60C" unicode="&#xe60c;" 
d="M876 259q-33 -32 -74 -53q-14 -1 -23 9l-31 31l-291 290q-28 29 -33 33q-8 9 4 40q19 31 43 55q84 84 202.5 84t202 -84t83.5 -202.5t-83 -202.5zM835 624q-67 67 -161.5 67t-161.5 -67q-15 -15 -28 -34l318 -318q18 13 33 28q67 67 67 162t-67 162zM402 372
q-24 72 -8 147l51 -52q-2 -98 67 -167t167 -66l52 -52q-75 -15 -147 8l-1 -1l-314 -294q-41 -37 -86.5 -41.5t-85.5 31.5q-37 39 -33 85t43 87l294 314zM138 -74q22 -20 48.5 -16.5t50.5 26.5l291 280q-32 19 -57 43.5t-44 56.5l-279 -290q-24 -25 -27.5 -52t17.5 -48z" />
    <glyph glyph-name="uniE60E" unicode="&#xe60e;" 
d="M939 469h-342v342q0 35 -25 60t-60 25t-60 -25t-25 -60v-342h-342q-35 0 -60 -25t-25 -60t25 -60t60 -25h342v-342q0 -35 25 -60t60 -25t60 25t25 60v342h342q35 0 60 25t25 60t-25 60t-60 25z" />
    <glyph glyph-name="uniE60F" unicode="&#xe60f;" 
d="M827 767q0 29 -26 56.5t-61 27.5h-424q-40 0 -64.5 -28t-24.5 -57v-733q0 -30 27.5 -56t58.5 -26h428q23 0 40 9t25.5 20.5t13.5 25.5t6 21t1 9q1 568 0 731zM528 -16q-16 0 -27 11t-11 26.5t11 26.5t26.5 11t26.5 -11t11 -26.5t-11 -26.5t-26 -11zM764 78h-473v677h473
v-677zM689 577l-32 31l-126 -130l-133 137l-32 -31l109 -114h-92v-33h119v-63h-119v-32h119v-124h51v124h119v32h-119v63h119v33h-86z" />
    <glyph glyph-name="uniE613" unicode="&#xe613;" 
d="M939 563q-1 1 -2 3l-186 172q-25 26 -61.5 28.5t-64.5 -21.5q-18 -14 -43 -48q-20 -27 -33.5 -38t-36.5 -12q-22 1 -35.5 12t-34.5 38q-25 34 -42 48q-29 24 -65 21.5t-61 -28.5l-186 -172q-1 -2 -2 -3q-22 -24 -21 -55.5t23 -53.5l55 -81q3 -4 6 -7q21 -19 49.5 -20.5
t51.5 14.5l-40 -179v-6q-5 -63 38 -109t107 -46h315q63 0 106.5 46t38.5 109q0 3 -1 6l-40 179h1q23 -16 51.5 -14.5t49.5 20.5q3 3 6 7l55 81q22 22 22.5 53.5t-20.5 55.5zM882 506q-3 -3 -5 -6l-54 -79q-2 -1 -4 1q-24 17 -48.5 22.5t-50.5 -4.5q-30 -18 -28 -58
q0 -3 1 -5l47 -209q1 -29 -19 -50q-21 -22 -51 -22h-315q-31 0 -51 22q-20 21 -19 50l47 209v5q3 40 -28 58q-25 10 -50 4.5t-48 -22.5q-2 -2 -4 -1l-54 79q-2 3 -6 6q-2 3 -1 6l186 171q1 1 2 3q10 11 22 1q11 -9 31 -35q12 -17 20 -26.5t23.5 -23t34.5 -21t42 -9.5
q3 -1 7 -1h7q3 0 7 1q22 2 41.5 9.5t34.5 21t23.5 23t20.5 26.5q20 26 30 35q13 10 23 -1q1 -2 2 -3l185 -171q2 -3 -1 -6z" />
    <glyph glyph-name="uniE614" unicode="&#xe614;" horiz-adv-x="1025" 
d="M455 602l-431 -431q-24 -23 -24 -57t24 -57.5t57.5 -23.5t57.5 24l373 373l373 -373q24 -24 57.5 -24t57.5 23.5t24 57.5t-24 57l-431 431q-23 24 -57 24t-57 -24z" />
    <glyph glyph-name="uniE617" unicode="&#xe617;" 
d="M926 33h-831q-14 0 -24.5 10.5t-10.5 25.5v635q0 15 10.5 25.5t24.5 10.5h707q15 0 25 -10.5t10 -25.5v-424q0 -14 -10 -24.5t-25 -10.5t-25 10.5t-10 24.5v389h-636v-565h759v547q0 15 10.5 25.5t25 10.5t25 -10.5t10.5 -25.5v-582q0 -15 -10.5 -25.5t-24.5 -10.5z
M537 528h-194q-11 0 -19 7.5t-8 18.5t8 19t19 8h194q11 0 18.5 -8t7.5 -19t-7.5 -18.5t-18.5 -7.5zM643 351h-389q-11 0 -18.5 8t-7.5 19t7.5 18.5t18.5 7.5h389q11 0 18.5 -7.5t7.5 -18.5t-7.5 -19t-18.5 -8zM643 210h-389q-11 0 -18.5 7.5t-7.5 18.5t7.5 19t18.5 8h389
q11 0 18.5 -8t7.5 -19t-7.5 -18.5t-18.5 -7.5z" />
    <glyph glyph-name="uniE622" unicode="&#xe622;" 
d="M565 223zM901 90h-784q-36 1 -61.5 26.5t-25.5 61.5q0 19 7 35t18.5 28t27.5 19l12 4q21 108 95 192q73 84 176 121q2 55 42 95q41 42 101 42q60 -1 102 -42q40 -39 43 -95q102 -37 175 -121t95 -192q22 -6 39 -23q26 -26 26 -62.5t-26 -62.5t-62 -26zM122 203
q-9 0 -13 -2q-5 -2 -8.5 -5t-5 -8t-1.5 -10q0 -10 7 -17t17 -7h783q10 0 17 7t7 18q0 10 -7 17t-17 7h-28l-8 27q-15 104 -84 184q-70 80 -170 109l-23 7v31q2 7 2 9q0 33 -24 56q-23 24 -56.5 24t-56.5 -23t-23 -57q0 -4 1 -13l2 -26l-25 -8q-101 -29 -170 -109t-84 -184
l-4 -27h-28zM64 44h896v-64h-896v64zM284 270l-60 24q19 46 47.5 83t53 56.5t51.5 33t38 17t18 4.5l13 -62q-6 -1 -14 -4t-29 -14t-40 -26.5t-41 -45t-37 -66.5z" />
    <glyph glyph-name="uniE629" unicode="&#xe629;" 
d="M952 344h-80q-17 0 -28.5 11.5t-11.5 28.5t11.5 28.5t28.5 11.5h80q17 0 28.5 -11.5t11.5 -28.5t-11.5 -28.5t-28.5 -11.5v0zM795 610q-12 -11 -28.5 -11t-28 11.5t-11.5 28t11 28.5l57 56q12 12 28.5 12t28 -11.5t11.5 -28t-12 -28.5l-56 -57v0zM512 144
q-99 0 -169.5 70.5t-70.5 169.5t70.5 169.5t169.5 70.5t169.5 -70.5t70.5 -169.5t-70.5 -169.5t-169.5 -70.5v0zM512 544q-66 0 -113 -47t-47 -113t47 -113t113 -47t113 47t47 113t-47 113t-113 47v0zM512 704q-17 0 -28.5 11.5t-11.5 28.5v80q0 17 11.5 28.5t28.5 11.5
t28.5 -11.5t11.5 -28.5v-80q0 -17 -11.5 -28.5t-28.5 -11.5v0zM229 610l-56 57q-12 12 -12 28.5t11.5 28t28 11.5t28.5 -12l57 -56q11 -12 11 -28.5t-11.5 -28t-28 -11.5t-28.5 11v0zM192 384q0 -17 -11.5 -28.5t-28.5 -11.5h-80q-17 0 -28.5 11.5t-11.5 28.5t11.5 28.5
t28.5 11.5h80q17 0 28.5 -11.5t11.5 -28.5v0zM229 158q12 11 28.5 11t28 -11.5t11.5 -28t-11 -28.5l-57 -56q-12 -12 -28.5 -12t-28 11.5t-11.5 28t12 28.5l56 57v0zM512 64q17 0 28.5 -11.5t11.5 -28.5v-80q0 -17 -11.5 -28.5t-28.5 -11.5t-28.5 11.5t-11.5 28.5v80
q0 17 11.5 28.5t28.5 11.5v0zM795 158l56 -57q12 -12 12 -28.5t-11.5 -28t-28 -11.5t-28.5 12l-57 56q-11 12 -11 28.5t11.5 28t28 11.5t28.5 -11v0z" />
    <glyph glyph-name="uniE62D" unicode="&#xe62d;" horiz-adv-x="1297" 
d="M463 895q-13 0 -22.5 -9.5t-9.5 -22.5v-313q0 -33 -18 -59.5t-46 -37.5v410q0 13 -9.5 22.5t-22.5 9.5t-22.5 -9.5t-9.5 -22.5v-410q-28 11 -46 37.5t-18 59.5v313q0 13 -9 22.5t-22.5 9.5t-22.5 -9.5t-9 -22.5v-320q0 -58 36 -102t91 -55v-481q0 -13 9.5 -22.5
t22.5 -9.5t22.5 9.5t9.5 22.5v481q55 11 91.5 55t36.5 102v320q0 13 -9.5 22.5t-22.5 9.5zM1120 640q0 106 -65.5 181t-158 75t-158.5 -75t-66 -181q0 -96 55.5 -168t137.5 -85q0 -1 -0.5 -1.5t-0.5 -1.5v-480q0 -13 9.5 -22.5t23 -9.5t22.5 9.5t9 22.5v480v2v1
q82 13 137 85t55 168zM896 448q-66 0 -113 56t-47 136t47 136t113.5 56t113 -56t46.5 -136t-46.5 -136t-113.5 -56zM896 448z" />
    <glyph glyph-name="uniE649" unicode="&#xe649;" 
d="M384 620h192v-192h-192v192zM384 364h192v-192h-192v192zM384 108h192v-192h-192v192z" />
    <glyph glyph-name="uniE653" unicode="&#xe653;" horiz-adv-x="1113" 
d="M1020 392h-928q-38 0 -65 -26.5t-27 -63.5v-31q0 -29 17.5 -52.5t45.5 -32.5l93 -316q1 -3 2 -5q24 -48 52.5 -62.5t67.5 -14.5h557q19 0 32 2t29.5 9.5t31 23.5t27.5 42q1 2 2 5l92 316q29 9 46.5 32.5t17.5 52.5v31q0 37 -27.5 63.5t-65.5 26.5zM1051 271
q0 -11 -8 -19.5t-20 -9.5q-21 -2 -27 -22l-97 -331q-11 -20 -21.5 -29t-18.5 -10.5t-24 -1.5h-557q-17 0 -25 1.5t-18.5 10.5t-20.5 29l-97 331q-6 20 -27 22q-12 1 -20.5 9.5t-8.5 19.5v31q0 12 9 21t22 9h928q13 0 22 -9t9 -21v-31zM307 461l228 228q11 -4 21 -4
q11 0 23 4l226 -228q10 -10 24 -10q13 0 23 9q10 10 10 23t-9 23l-233 234q1 6 1 9q0 26 -19 44.5t-46 18.5t-46 -18.5t-19 -44.5q0 -4 2 -10l-233 -233q-9 -10 -9 -23t10 -22.5t23.5 -9.5t22.5 10zM923 232h-723q-7 0 -12 -5t-5 -11.5t5 -11.5t12 -5h723q7 0 12 5t5 11.5
t-5 11.5t-12 5zM893 123h-671q-7 0 -12 -5t-5 -11.5t5 -11.5t12 -5h671q7 0 12 5t5 11.5t-5 11.5t-12 5zM853 14h-602q-7 0 -12 -4.5t-5 -11.5t5 -11.5t12 -4.5h602q7 0 12 4.5t5 11.5t-5 11.5t-12 4.5zM853 14z" />
    <glyph glyph-name="uniE659" unicode="&#xe659;" 
d="M960 213h-21h-86q-17 0 -29.5 12.5t-12.5 30.5v21v22q0 123 -88 210.5t-211 87.5t-211 -87.5t-88 -210.5q0 -15 2 -22q-2 -12 -2 -21q0 -18 -12.5 -30.5t-29.5 -12.5h-86h-21q-18 0 -30.5 12.5t-12.5 30.5t12.5 30.5t30.5 12.5h21h43q0 141 91.5 248t228.5 129v7
q0 27 18.5 45.5t45.5 18.5t45.5 -18.5t18.5 -45.5v-7q137 -22 228.5 -129t91.5 -248h43h21q18 0 30.5 -12.5t12.5 -30.5t-12.5 -30.5t-30.5 -12.5zM469 512h11q13 0 22.5 -9.5t9.5 -22.5t-9.5 -22.5t-22.5 -9.5h-11q-52 0 -90 -37.5t-38 -90.5v-11q0 -12 -9.5 -22t-22 -10
t-22.5 10t-10 22v11q0 80 56 136t136 56zM64 107h896q18 0 30.5 -12.5t12.5 -30.5t-12.5 -30.5t-30.5 -12.5h-896q-18 0 -30.5 12.5t-12.5 30.5t12.5 30.5t30.5 12.5z" />
    <glyph glyph-name="uniE65D" unicode="&#xe65d;" 
d="M488 151q7 -7 16 -7h1q9 0 16 6l209 209q6 7 6 16.5t-6.5 16t-16 6.5t-16.5 -7l-192 -192l-180 192q-7 7 -16.5 7t-16 -6.5t-7 -16t6.5 -15.5zM511 -146q91 0 173.5 35.5t142.5 95.5t95.5 142.5t35.5 173.5t-35.5 174t-95.5 142.5t-142.5 95t-173.5 35.5t-174 -35.5
t-142.5 -95t-95 -142.5t-35.5 -174t35.5 -173.5t95 -142.5t142.5 -95.5t174 -35.5zM511 703q109 0 201.5 -54t146.5 -146.5t54 -201.5t-54 -201.5t-146.5 -146t-201.5 -53.5t-201.5 53.5t-146.5 146t-54 201.5t54 201.5t146.5 146.5t201.5 54z" />
    <glyph glyph-name="uniE672" unicode="&#xe672;" 
d="M196 65q0 -14 0.5 -44t0 -42t-1.5 -31t-5 -30t-10 -20q-20 -26 -49 -33t-56 9q-27 17 -34 47.5t10 57.5q10 16 34.5 31.5t65.5 34t45 20.5zM564 -20q-21 -34 -12 -73t42 -60q35 -21 72 -11.5t61 41.5q8 11 13 25t6.5 38t2 39.5t0 53.5t-0.5 56q-5 -3 -57 -26.5t-83 -43
t-44 -39.5zM861 563q-18 88 -89 146t-162 58q-65 0 -123 -32t-93 -87q-10 1 -20 1q-73 0 -130.5 -44t-77.5 -114q-69 -4 -117.5 -55t-48.5 -122q0 -73 52 -125t125 -52h127q17 0 28.5 11.5t11.5 28t-11.5 28t-28.5 11.5h-127q-40 0 -69 29t-29 69.5t29 69.5t69 29q5 0 16 -2
q17 -2 30 8t15 27q5 53 44 88.5t92 35.5q14 0 32 -4q14 -3 26.5 3t18.5 19q22 46 65.5 73.5t93.5 27.5q69 0 120 -47.5t57 -115.5q1 -14 11 -24t24 -12q53 -6 88 -45t35 -91q0 -57 -40.5 -97.5t-97.5 -40.5h-150q-17 0 -28.5 -11.5t-11.5 -28t11.5 -28t28.5 -11.5h150
q90 0 153.5 63.5t63.5 153.5q0 74 -45.5 132.5t-117.5 76.5zM569 304q-14 8 -30 4t-24 -18l-210 -363q-9 -14 -4.5 -30t18.5 -24q9 -5 20 -5q22 0 34 20l210 362q9 14 4.5 30t-18.5 24z" />
    <glyph glyph-name="uniE67C" unicode="&#xe67c;" 
d="M377 21l-198 2l3 724l541 -3v-243q0 -15 10.5 -25.5t26 -10.5t26 10.5t10.5 25.5v243q0 31 -22 53t-53 22h-539q-31 0 -53 -22t-22 -53v-721q0 -30 22 -52t53 -22h195q15 0 25.5 10.5t10.5 25.5t-10.5 25.5t-25.5 10.5zM917 228q-1 36 -26 61l-63 63q-26 25 -64.5 25.5
t-64.5 -25.5l-192 -192q-19 -16 -19 -44v-116q0 -21 15 -36t36 -15h108h6q26 0 41 15l14 14q159 159 183 182q26 27 26 65v3zM839 212q-25 -25 -182 -183l-8 -8h-89v89l190 190q6 6 13.5 6t13.5 -6l62 -62q6 -5 6 -13v-2q-1 -7 -6 -11zM612 496h-326q-7 0 -12.5 -5.5
t-5.5 -13t5.5 -13t12.5 -5.5h326q8 0 13 5.5t5 13t-5 13t-13 5.5zM612 641h-326q-7 0 -12.5 -5.5t-5.5 -13t5.5 -13t12.5 -5.5h326q8 0 13 5.5t5 13t-5 13t-13 5.5zM467 351h-181q-7 0 -12.5 -5.5t-5.5 -13t5.5 -13t12.5 -5.5h181q8 0 13 5.5t5 13t-5 13t-13 5.5zM467 351z
" />
    <glyph glyph-name="uniE67F" unicode="&#xe67f;" horiz-adv-x="1206" 
d="M1206 -212h-101v912q0 4 -3.5 7.5t-8.5 3.5h-546q-5 0 -8 -3.5t-3 -7.5v-912h-101v912q0 46 33 79t79 33h546q47 0 80 -33t33 -79v-912zM101 -212h-101v442q0 46 33 79t79 33h242v-101h-242q-4 0 -7.5 -3t-3.5 -8v-442zM624 552h393v-101h-393v101zM624 362h393v-100
h-393v100zM624 173h393v-101h-393v101zM624 -16h393v-101h-393v101zM162 173h192v-101h-192v101zM162 -16h192v-101h-192v101z" />
    <glyph glyph-name="uniE693" unicode="&#xe693;" 
d="M931 474q-34 80 -95.5 142t-142.5 96q-83 35 -174 35t-174 -35q-80 -34 -142 -96t-96 -142q-35 -83 -35 -174t35 -174q34 -80 96 -142t142 -96q83 -35 174 -35t174 35q81 34 142.5 96t95.5 142q35 83 35 174t-35 174zM561 -62v135h-83v-135q-126 14 -216 104.5
t-105 215.5l135 1v82h-135q15 126 105 216t216 105v-135h83v135q125 -15 215 -104.5t105 -215.5h-135v-83h135q-14 -126 -104 -216t-216 -105zM519 300zM401 300q0 49 34.5 83.5t83.5 34.5t83.5 -34.5t34.5 -83.5t-34.5 -83.5t-83.5 -34.5t-83.5 34.5t-34.5 83.5z" />
    <glyph glyph-name="uniE6A3" unicode="&#xe6a3;" 
d="M876 498q-14 121 -105 203t-214 82q-95 0 -173 -50.5t-118 -133.5h-7q-104 0 -178 -74t-74 -178q0 -100 68 -172t166 -79l55 91h-21q-8 -1 -15 -1q-67 0 -114.5 47.5t-47.5 114.5t47.5 114t114.5 47q36 0 68 -15q13 84 77.5 140t151.5 56q95 0 162.5 -67.5t67.5 -163.5
q0 -24 -5 -48q14 4 29 4q47 0 80.5 -33.5t33.5 -81t-33.5 -81t-80.5 -33.5q-9 0 -17 1l-27 -94h43v1q86 0 146.5 60.5t60.5 146.5q0 68 -39.5 122t-101.5 75zM581 232l-3 1q-20 8 -37 -23l-114 -185q-10 -16 -6 -34t20 -27l3 -1q16 -10 34.5 -5t28.5 22l72 185q18 56 2 67z
M417 227l-3 2q-23 12 -41 -19l-87 -140q-10 -17 -6 -34.5t20 -27.5l3 -1q16 -9 34.5 -4t28.5 21l45 141q21 57 6 62zM738 227l-2 2q-24 12 -41 -19l-88 -140q-10 -17 -6 -34.5t21 -27.5l2 -1q17 -9 35 -4t28 21l45 141q21 57 6 62z" />
    <glyph glyph-name="uniE6AB" unicode="&#xe6ab;" 
d="M195.5 543q-12.5 0 -21 -9t-8.5 -21.5t8.5 -21t21 -8.5t21.5 8.5t9 21t-9 21.5t-21.5 9zM967.5 613.5q-31.5 19.5 -72.5 -0.5l-193 -92v38q0 43 -30 73.5t-73 30.5h-392h-29h-28q-43 0 -73.5 -30.5t-30.5 -73.5v-9v-18v-335v-5v-22q0 -43 30.5 -73.5t73.5 -30.5h129h10
h310q43 0 73 30.5t30 73.5v38l193 -94q19 -9 39 -9q18 0 33 9q32 20 32 65v369q0 46 -31.5 65.5zM661 170q0 -26 -18 -44t-44 -18h-320h-129q-26 0 -44.5 18t-18.5 44v22v358v9q0 26 18.5 44t44.5 18h28h29h392q26 0 44 -18t18 -44v-389zM958 179q0 -22 -12.5 -29.5
t-32.5 1.5l-211 103v221l211 101q20 10 32.5 2.5t12.5 -30.5v-369z" />
    <glyph glyph-name="uniE6C7" unicode="&#xe6c7;" 
d="M671 -6q-42 0 -85 -12t-51 -34v-1h-46q-8 22 -51 34t-85 12h-251v660h273q43 0 79.5 -20.5t57.5 -54.5q21 34 57.5 54.5t79.5 20.5h273v-659h-251zM489 516q0 39 -34.5 65t-79.5 26h-227v-569h205q115 2 136 -33v25q-1 37 0 77v395v14zM876 607h-227q-45 0 -79.5 -26
t-34.5 -65v-14v-395q1 -39 0 -76v-26q21 36 136 34h205v568z" />
    <glyph glyph-name="uniE6F4" unicode="&#xe6f4;" 
d="M709 194q57 45 89.5 110t32.5 140q0 133 -93.5 226t-225.5 93t-225.5 -93t-93.5 -226q0 -75 32.5 -140t89.5 -110q-101 -52 -165 -147.5t-72 -211.5h58q8 109 73 196t165 126q66 -32 138 -32t138 32q100 -39 165 -126t73 -196h58q-8 116 -72 211.5t-165 147.5zM512 183
q-108 0 -184.5 76.5t-76.5 185t76.5 184.5t184.5 76t184.5 -76t76.5 -184.5t-76.5 -185t-184.5 -76.5zM512 183z" />
    <glyph glyph-name="uniE703" unicode="&#xe703;" horiz-adv-x="1025" 
d="M535 458q9 -9 9.5 -22t-9.5 -23l-272 -272q-9 -9 -22 -9t-23 10q-9 9 -9 22t9 23l272 272q9 9 22.5 9t22.5 -10zM806 142q-10 -10 -23 -10t-22 9l-272 272q-10 10 -9.5 23t9.5 22q9 10 22.5 10t22.5 -9l272 -272q9 -10 9 -23t-9 -22zM512 812q-104 0 -199 -40.5
t-163.5 -109t-109 -163.5t-40.5 -199t40.5 -199t109 -163.5t163.5 -109t199 -40.5t199 40.5t163.5 109t109 163.5t40.5 199t-40.5 199t-109 163.5t-163.5 109t-199 40.5zM512 -164q-94 0 -180 36.5t-148 99t-99 148.5t-37 180t37 180t99 148.5t148 99t180 36.5t180 -36.5
t148.5 -99t99 -148.5t36.5 -180t-36.5 -180t-99 -148.5t-148.5 -99t-180 -36.5z" />
    <glyph glyph-name="uniE743" unicode="&#xe743;" 
d="M511.5 96q-119.5 0 -203.5 84.5t-84 203.5t84 203.5t203.5 84.5t204 -84.5t84.5 -203.5t-84.5 -203.5t-204 -84.5zM511.5 608q-92.5 0 -158 -65.5t-65.5 -158t65.5 -158.5t158 -66t158.5 66t66 158.5t-66 158t-158.5 65.5zM128 352h-64q-13 0 -22.5 9.5t-9.5 23t9.5 22.5
t22.5 9h64q13 0 22.5 -9t9.5 -22.5t-9.5 -23t-22.5 -9.5zM959 352h-64q-13 0 -22.5 9.5t-9.5 23t9.5 22.5t22.5 9h64q14 0 23 -9t9 -22.5t-9 -23t-23 -9.5zM511.5 -95q-13.5 0 -22.5 9t-9 23v63q0 14 9 23t22.5 9t23 -9t9.5 -23v-63q0 -14 -9.5 -23t-23 -9zM511.5 736
q-13.5 0 -22.5 9.5t-9 22.5v64q0 13 9 22.5t22.5 9.5t23 -9.5t9.5 -22.5v-64q0 -13 -9.5 -22.5t-23 -9.5zM198.5 36q-13.5 0 -23 9t-9.5 22.5t10 22.5l45 46q9 9 22.5 9t23 -9.5t9.5 -22.5t-10 -23l-45 -45q-9 -9 -22.5 -9zM786.5 624q-13.5 0 -23 9t-9.5 22.5t10 22.5
l45 45q9 10 22.5 10t22.5 -9.5t9 -22.5t-9 -23l-45 -45q-9 -9 -22.5 -9zM831.5 36q-13.5 0 -22.5 9l-45 45q-10 10 -10 23t9.5 22.5t23 9.5t22.5 -9l45 -46q9 -9 9 -22.5t-9 -22.5t-22.5 -9zM243.5 624q-13.5 0 -22.5 9l-45 45q-10 10 -10 23t9.5 22.5t23 9.5t22.5 -10
l45 -45q10 -9 10 -22.5t-9.5 -22.5t-23 -9zM75 896z" />
    <glyph glyph-name="uniE7E9" unicode="&#xe7e9;" 
d="M700 759l-205 137v-273zM495 793q-121 -4 -223 -66.5t-161.5 -167t-59.5 -226.5q0 -94 36.5 -179.5t98.5 -147t147 -98t179 -36.5q122 0 226.5 59t167 161t67.5 224h-69q-4 -103 -57.5 -189.5t-142 -136.5t-192.5 -50q-106 0 -196.5 52.5t-143 143t-52.5 197.5
q0 104 50 192.5t136 142t189 57.5v68z" />
    <glyph glyph-name="uniE81C" unicode="&#xe81c;" 
d="M777 550l-265 -266l-265 266q-9 10 -22.5 10t-23 -9.5t-9.5 -23t9 -22.5l287 -288q9 -9 24 -9q15 -1 24 9l287 288q9 9 9 22.5t-9.5 23t-23 9.5t-22.5 -10z" />
  </font>
</defs>
</svg>
